<svg width="29" height="32" viewBox="0 0 29 32" fill="none" xmlns="http://www.w3.org/2000/svg">
<path fill-rule="evenodd" clip-rule="evenodd" d="M9.07728 11.1283H9.29984H9.52241L9.64606 11.2767L9.96754 12.0186L10.3879 13.0325L10.9073 14.3926L11.4266 15.9506L11.6739 16.7914L11.7728 17.7063L11.847 18.8439L11.7728 19.3138L11.5997 19.66L11.3029 20.1546L11.0062 20.6492L10.8825 20.8965V20.9954V21.0696H11.6739L11.8964 21.1685L12.1685 21.391L12.6136 21.9104L12.8856 22.405L13.034 22.8254V23.0974V23.6414L12.4652 23.4436L11.9459 23.221L11.4266 23.0232L11.0062 22.8254V22.405H11.7728L11.5997 22.1577L11.3029 21.9846L11.0556 21.9104L10.7836 21.9846L10.5116 22.1577L10.1654 22.405L9.89335 22.7264L9.72024 23.0232H9.15146L8.95363 22.8254V11.2025L9.07728 11.1283ZM9.74498 13.4034L10.0665 14.0216L10.4374 15.085L10.8578 16.5193L11.0309 17.558L11.1546 18.473V19.0417L10.7342 19.7094L10.2643 20.4761L10.1654 20.7728V21.3416L9.74498 21.762H9.64606V13.4034H9.74498Z" fill="#F3EFE4"/>
<path fill-rule="evenodd" clip-rule="evenodd" d="M19.984 11.1283H19.7614H19.5388L19.4151 11.2767L19.0935 12.0186L18.673 13.0325L18.1536 14.3926L17.6341 15.9506L17.3868 16.7914L17.2878 17.7063L17.2136 18.8439L17.2878 19.3138L17.461 19.66L17.7578 20.1546L18.0546 20.6492L18.1783 20.8965V20.9954V21.0696H17.3868L17.1641 21.1685L16.892 21.391L16.4468 21.9104L16.1747 22.405L16.0263 22.8254V23.0974V23.6414L16.5952 23.4436L17.1147 23.221L17.6341 23.0232L18.0546 22.8254V22.405H17.2878L17.461 22.1577L17.7578 21.9846L18.0052 21.9104L18.2773 21.9846L18.5494 22.1577L18.8957 22.405L19.1678 22.7264L19.3409 23.0232H19.9098L20.1077 22.8254V11.2025L19.984 11.1283ZM19.3162 13.4034L18.9946 14.0216L18.6236 15.085L18.2031 16.5193L18.0299 17.558L17.9062 18.473V19.0417L18.3267 19.7094L18.7967 20.4761L18.8957 20.7728V21.3416L19.3162 21.762H19.4151V13.4034H19.3162Z" fill="#F3EFE4"/>
<path fill-rule="evenodd" clip-rule="evenodd" d="M13.8748 3.65996V3.51159V3.46213L14.1221 3.48686L14.2705 3.58578L14.3941 3.68469L14.6167 3.88253L14.7651 4.1051L14.8887 4.30293L15.0124 4.5255L15.136 4.79752L15.2597 5.06955L15.3586 5.34157L15.4575 5.66306L15.5564 6.00927L15.5811 6.30602L15.6059 6.75115V6.94899L15.1855 7.56723L15.2102 7.59196L15.7048 7.22101H15.8037L15.8779 7.27047L15.9768 7.46831L16.0015 7.66615L16.051 7.98763L16.1252 8.28438L16.1994 8.70479L16.2983 9.2983L16.3972 9.86707L16.4961 10.609V11.4992L16.5209 17.1376L16.4714 17.3107L15.7048 18.1267L15.7542 18.1762L16.3725 18.0278L16.3972 18.2998V19.7836L16.323 20.6244L16.1994 21.391L15.9768 22.034L15.6801 22.578L15.3091 23.0479L14.9382 23.2457H14.8393V24.3338H16.1005V24.779L15.6801 25.2241L15.5811 25.323V25.4714C16.084 25.8918 17.0946 26.7425 17.1144 26.7821C17.1342 26.8216 17.4029 27.1118 17.5348 27.2519L17.5595 27.3014V28.1175L17.2627 28.4884L16.9165 28.711L16.4219 28.8099L15.8779 28.9088H13.2318H12.8362L12.0695 28.5131L11.7481 28.2906L11.575 28.1422L11.5255 28.0433V27.4003V27.3014L13.5533 25.4714V25.2241L13.0835 24.7048L13.0093 24.6553V24.3833V24.3338H14.1468V23.2457L13.7017 22.8748L13.3308 22.3308L13.1329 21.8609L12.9351 21.391L12.8114 20.8223L12.7372 20.1051L12.6383 19.0665V18.2998L12.5889 14.1947H13.1329V14.0958L12.6383 13.4281V11.7465L12.7125 10.5348L12.8362 9.74343L13.0093 8.65533L13.3308 7.46831L13.578 6.55332L13.8253 5.81143L13.8748 5.06955V3.65996ZM14.5672 10.0897L14.493 10.5595L14.4188 11.2767V12.439L14.3447 14.9366V19.4127L14.4436 22.1329L14.5425 22.7017L14.6909 22.1329L14.7651 20.8717V17.4343V13.5518L14.6909 11.6229L14.6414 10.6337L14.5672 10.0897ZM14.2705 24.5811H13.4544V24.7295L13.5533 24.8779L13.6769 24.9521H13.9737L14.2705 24.7543V24.5811ZM14.9876 28.2411L15.408 28.1175L15.8284 27.9938L16.1252 27.8207L16.2736 27.5981V27.4003L16.2241 27.3014H16.4714L16.6445 27.4003L16.7681 27.5487L16.8423 27.7218L16.7681 27.8702L16.6445 28.0433L16.3725 28.1669L16.051 28.2411L15.6306 28.3153L15.3586 28.3648H15.0371L14.9382 28.3153L14.9876 28.2411Z" fill="#F3EFE4"/>
<path fill-rule="evenodd" clip-rule="evenodd" d="M4.32922 0.370943L4.05719 0.741886L3.58733 1.5085L3.11747 2.47295L2.67234 3.58578L2.35086 4.50077L2.07883 5.51468L1.93046 6.47913L1.80681 7.5425L1.75735 8.70479V9.2983L1.80681 9.99073L1.90573 10.7821L2.0541 11.8207L2.25194 13.0077L2.42505 14.0464L2.67234 15.1839L2.89491 16.1731L3.24112 17.6569L3.58733 19.3138L3.78517 20.0556L3.88409 20.6986L3.95828 21.5147L4.05719 22.6028L4.15611 24.2102L4.20557 25.6692L4.25503 27.0788L4.20557 28.1175L4.15611 28.1917H1.75735L1.48532 28.3153L1.18857 28.5379L0.990734 28.7357L0.842357 28.9088L0.768168 29.0077L0.743439 30.6399L0.842357 31.0355L0.990734 31.4065L1.26276 31.7774L1.41114 31.9258L24.6074 32L24.9042 31.8022L25.2999 31.3323L25.6213 30.8624L25.8439 30.4173L26.388 29.3292L26.6847 28.4389L26.932 27.6971L27.1793 26.6832L27.3277 25.694L27.3524 24.9026V21.9104L27.2535 21.1437L27.1546 20.1051L27.0556 19.4127L26.9815 18.9181L26.8578 18.0773L26.6105 16.9397L26.3138 15.4807L25.8686 13.3539L25.473 11.3756L25.3493 10.5842L25.2257 9.14992L25.102 8.2102L25.0278 7.5425L24.9784 3.88253L25.0773 3.83308H27.8223L28.1932 3.48686L28.3416 3.19011V2.69552V1.5085L28.1932 0.964451L28.0696 0.667697L27.8965 0.445131L27.7728 0.321484L27.4513 0.0741886L27.204 0H4.94746H4.70016L4.52706 0.123648L4.32922 0.370943ZM4.05718 31.4065L4.72488 30.442L4.99691 29.3539L5.19474 27.2519V24.8037L4.99691 21.8609L4.72488 19.289L4.13137 16.7419L3.46368 13.5518L2.96909 10.1391V7.76507L3.46368 5.16847L4.4034 2.62133L5.19474 1.23648L5.51623 0.692428H25.0773L24.7805 1.06337L24.1623 2.29985L23.6924 3.65997L23.544 5.16847L23.6924 7.76507L23.9397 10.5595L24.6321 13.5518L25.3246 17.1623L25.9675 20.4019L26.1654 24.0371L25.9675 25.8176L25.3246 28.2906L24.0634 30.7635L23.6924 31.4065H4.05718ZM4.08191 29.0819H1.58423V30.7141L1.73261 31.0108L1.88098 31.3323L2.25193 31.5796H2.62287L2.84543 31.456L3.16692 31.1592L3.43894 30.8624L3.66151 30.4668L3.78516 30.0958L3.95826 29.6012L4.08191 29.0819ZM25.0278 3.06646H27.6244V2.5966V1.58269V1.28594L27.4266 0.939726L27.204 0.642972L27.0309 0.494595H26.6105H26.3138L25.9923 0.642972L25.7697 0.939726L25.473 1.58269L25.2504 2.22566L25.0278 3.06646Z" fill="#F3EFE4"/>
</svg>
