<svg width="172" height="48" viewBox="0 0 172 48" fill="none" xmlns="http://www.w3.org/2000/svg">
<path d="M71.93 21.7123C70.922 21.7053 70.1957 21.4669 69.7509 20.9971C69.3156 20.5181 69.1016 19.7466 69.109 18.6826L69.1436 13.7267L66.0265 21.0412L65.5645 21.0379L61.8657 13.396L61.8126 21.0118L61.1126 21.0069L61.1771 11.7671L62.885 11.779L66.225 18.6765L69.1429 11.8227L70.9768 11.8354L70.929 18.6953C70.9229 19.5726 70.9931 20.2171 71.1395 20.6288C71.286 21.0405 71.5503 21.285 71.9324 21.3623L71.93 21.7123ZM73.2741 16.3316C73.2774 15.8556 73.2146 15.5051 73.0855 15.2802C72.9564 15.046 72.6959 14.9275 72.3039 14.9248L72.1639 14.9238L72.1668 14.5038L73.8468 14.5155C74.1828 14.5179 74.4391 14.5756 74.6156 14.6889C74.7922 14.8021 74.9169 14.9897 74.9897 15.2515C75.0626 15.504 75.0974 15.8683 75.0941 16.3443L75.0731 19.3542L77.6267 14.5419L79.3067 14.5536L79.2608 21.1334L77.4408 21.1207L77.4745 16.2909L74.9209 21.1032L73.2409 21.0915L73.2741 16.3316ZM81.2586 16.3872C81.262 15.9112 81.1991 15.5608 81.07 15.3359C80.9503 15.1017 80.6944 14.9833 80.3024 14.9805L80.1624 14.9796L80.1654 14.5596L81.5513 14.5692C81.878 14.5715 82.1296 14.6199 82.3063 14.7145C82.4831 14.7997 82.622 14.95 82.7232 15.1654C83.2772 14.6839 83.9136 14.4457 84.6322 14.4507C85.5749 14.4573 86.2959 14.7843 86.7954 15.4318C87.3043 16.07 87.5553 16.8931 87.5482 17.9011C87.5412 18.9091 87.2741 19.7332 86.747 20.3736C86.2292 21.0047 85.485 21.3168 84.5144 21.31C84.1317 21.3074 83.7729 21.2349 83.4379 21.0925C83.289 21.0355 83.1588 20.9646 83.0474 20.8798L83.0269 23.8197L81.2069 23.8071L81.2586 16.3872ZM84.2388 20.6781C85.1721 20.6846 85.6453 19.7546 85.6583 17.8879C85.6643 17.0293 85.5617 16.3472 85.3505 15.8417C85.1394 15.3363 84.8052 15.0819 84.3478 15.0787C83.8252 15.0751 83.3712 15.2633 82.9859 15.6433L83.0265 15.8395C83.0631 15.9518 83.0806 16.1106 83.0792 16.3159L83.0518 20.2498C83.1538 20.3345 83.2653 20.4053 83.3863 20.4622C83.6466 20.604 83.9308 20.676 84.2388 20.6781ZM91.9116 21.3616C91.2303 21.3569 90.634 21.2034 90.1227 20.9011C89.6209 20.5896 89.2364 20.1763 88.9694 19.6611C88.7023 19.1365 88.5711 18.5523 88.5756 17.9083C88.5801 17.2643 88.7194 16.6866 88.9937 16.1751C89.268 15.6544 89.6582 15.2464 90.1642 14.9513C90.6797 14.6469 91.2781 14.497 91.9594 14.5018C92.6407 14.5065 93.2323 14.6647 93.7341 14.9762C94.2454 15.2784 94.6345 15.6918 94.9015 16.2163C95.1686 16.7315 95.2999 17.3111 95.2954 17.9551C95.2909 18.5991 95.1515 19.1815 94.8772 19.7022C94.603 20.2137 94.2081 20.6216 93.6927 20.926C93.1866 21.2212 92.5929 21.3664 91.9116 21.3616ZM91.916 20.7316C92.392 20.7349 92.7577 20.4808 93.0133 19.9693C93.2689 19.4577 93.3996 18.7819 93.4055 17.9419C93.4113 17.102 93.29 16.4244 93.0416 15.9094C92.7932 15.3943 92.431 15.1351 91.955 15.1318C91.479 15.1284 91.1132 15.3826 90.8577 15.8941C90.6021 16.4057 90.4714 17.0815 90.4655 17.9215C90.4597 18.7614 90.581 19.439 90.8294 19.954C91.0778 20.4691 91.44 20.7283 91.916 20.7316ZM96.9122 16.4964C96.9155 16.0204 96.8527 15.6699 96.7236 15.445C96.5945 15.2108 96.334 15.0923 95.942 15.0896L95.802 15.0886L95.8049 14.6686L97.4849 14.6803C97.8209 14.6826 98.0772 14.7404 98.2537 14.8537C98.4303 14.9669 98.555 15.1544 98.6278 15.4163C98.7007 15.6688 98.7355 16.0331 98.7322 16.509L98.7244 17.629L100.964 17.6446L100.985 14.7047L102.805 14.7174L102.772 19.4773C102.768 19.9533 102.831 20.3084 102.96 20.5426C103.089 20.7675 103.35 20.8813 103.742 20.8841L103.882 20.885L103.879 21.305L102.199 21.2933C101.863 21.291 101.607 21.2379 101.43 21.134C101.253 21.0207 101.129 20.8379 101.056 20.5853C100.983 20.3235 100.948 19.9499 100.952 19.4646L100.96 18.2746L98.72 18.259L98.699 21.2689L96.879 21.2562L96.9122 16.4964ZM107.604 21.471C106.96 21.4665 106.396 21.3133 105.913 21.0112C105.429 20.7092 105.054 20.3005 104.787 19.7853C104.53 19.2609 104.403 18.672 104.408 18.0186C104.413 17.2907 104.548 16.6709 104.813 16.1594C105.087 15.648 105.458 15.2632 105.927 15.0052C106.395 14.7378 106.923 14.6061 107.511 14.6102C108.09 14.6142 108.612 14.7345 109.077 14.9711C109.542 15.2077 109.908 15.5416 110.176 15.9728C110.444 16.3947 110.576 16.8809 110.572 17.4316C110.571 17.6089 110.56 17.8095 110.54 18.0334L110.51 18.3132L106.296 18.2838C106.29 19.1705 106.42 19.8201 106.688 20.2326C106.956 20.6358 107.333 20.8391 107.818 20.8425C108.266 20.8456 108.64 20.7502 108.94 20.5563C109.249 20.3531 109.545 20.0658 109.828 19.6945L110.26 20.0195C109.986 20.4376 109.643 20.7852 109.23 21.0623C108.827 21.3395 108.285 21.4758 107.604 21.471ZM108.68 17.6704C108.686 16.7931 108.588 16.1717 108.385 15.8063C108.182 15.4316 107.89 15.2429 107.507 15.2402C107.152 15.2377 106.862 15.427 106.635 15.8081C106.418 16.1799 106.306 16.7952 106.3 17.6538L108.68 17.6704ZM112.129 16.6024C112.132 16.1264 112.069 15.776 111.94 15.5511C111.811 15.3169 111.55 15.1984 111.158 15.1956L111.018 15.1947L111.021 14.7747L112.701 14.7864C113.037 14.7887 113.294 14.8465 113.47 14.9597C113.647 15.073 113.771 15.2605 113.844 15.5224C113.917 15.7749 113.952 16.1391 113.949 16.6151L113.941 17.7351L116.181 17.7507L116.201 14.8108L118.021 14.8235L117.988 19.5834C117.985 20.0593 118.048 20.4145 118.177 20.6487C118.306 20.8736 118.566 20.9874 118.958 20.9902L119.098 20.9911L119.095 21.4111L117.415 21.3994C117.079 21.3971 116.823 21.3439 116.646 21.24C116.47 21.1268 116.345 20.9439 116.272 20.6914C116.199 20.4296 116.165 20.056 116.168 19.5707L116.176 18.3807L113.936 18.3651L113.915 21.375L112.095 21.3623L112.129 16.6024ZM125.438 21.5953C125.027 21.5925 124.65 21.5058 124.306 21.3354C123.971 21.1558 123.656 20.8642 123.36 20.4608L122.028 18.6875L122.009 21.4314L120.189 21.4187L120.222 16.6589C120.226 16.1829 120.163 15.8324 120.034 15.6075C119.904 15.3733 119.644 15.2548 119.252 15.2521L119.112 15.2511L119.115 14.8311L120.795 14.8428C121.131 14.8451 121.387 14.9029 121.564 15.0162C121.74 15.1294 121.865 15.3169 121.938 15.5788C122.011 15.8313 122.045 16.1956 122.042 16.6715L122.033 18.0015L123.741 15.9414C124.061 15.5609 124.362 15.2877 124.643 15.1216C124.924 14.9556 125.298 14.8742 125.765 14.8775L126.045 14.8794L126.042 15.2434C125.762 15.2414 125.51 15.2957 125.285 15.4061C125.06 15.5166 124.844 15.6924 124.637 15.9336L123.268 17.5761L125.113 20.053C125.556 20.6628 125.988 21.0205 126.407 21.1261L126.405 21.4621C126.33 21.4989 126.194 21.5306 125.998 21.5572C125.802 21.5839 125.615 21.5966 125.438 21.5953ZM129.823 21.6259C129.141 21.6212 128.545 21.4677 128.034 21.1654C127.532 20.8539 127.148 20.4406 126.881 19.9254C126.614 19.4008 126.482 18.8165 126.487 18.1726C126.491 17.5286 126.631 16.9509 126.905 16.4394C127.179 15.9187 127.569 15.5107 128.075 15.2156C128.591 14.9112 129.189 14.7613 129.871 14.7661C130.552 14.7708 131.143 14.9289 131.645 15.2405C132.157 15.5427 132.546 15.9561 132.813 16.4806C133.08 16.9958 133.211 17.5754 133.207 18.2194C133.202 18.8634 133.063 19.4458 132.788 19.9665C132.514 20.478 132.119 20.8859 131.604 21.1903C131.098 21.4855 130.504 21.6307 129.823 21.6259ZM129.827 20.9959C130.303 20.9992 130.669 20.7451 130.925 20.2335C131.18 19.722 131.311 19.0462 131.317 18.2062C131.322 17.3663 131.201 16.6887 130.953 16.1736C130.704 15.6586 130.342 15.3994 129.866 15.3961C129.39 15.3927 129.024 15.6469 128.769 16.1584C128.513 16.67 128.383 17.3458 128.377 18.1857C128.371 19.0257 128.492 19.7032 128.741 20.2183C128.989 20.7334 129.351 20.9926 129.827 20.9959ZM61.3468 29.5887C61.3501 29.1128 61.2873 28.7623 61.1582 28.5374C61.0291 28.3032 60.7686 28.1847 60.3766 28.1819L60.2366 28.181L60.2395 27.761L61.9195 27.7727C62.2555 27.775 62.5118 27.8328 62.6883 27.9461C62.8649 28.0593 62.9896 28.2468 63.0624 28.5087C63.1353 28.7612 63.1701 29.1254 63.1668 29.6014L63.1277 35.2013L67.2394 27.8098L68.9193 27.8215L68.8549 37.0613L67.035 37.0486L67.0867 29.6288L62.9751 37.0203L61.2951 37.0086L61.3468 29.5887ZM70.6765 37.284C70.5365 37.283 70.3826 37.2679 70.2148 37.2388C70.047 37.2096 69.9212 37.1807 69.8374 37.1521L69.8402 36.7461C70.2046 36.6927 70.5137 36.5362 70.7675 36.2766C71.0214 36.0077 71.2253 35.5471 71.3791 34.8948C71.5424 34.2333 71.6281 33.3285 71.6361 32.1805C71.6389 31.7699 71.5665 31.4567 71.4186 31.241C71.2801 31.0254 71.0055 30.9161 70.5949 30.9132L70.5978 30.4933L76.8977 30.5372L76.8518 37.117L75.0318 37.1043L75.0733 31.1545L73.0994 31.1407L73.092 32.1907C73.0683 35.5973 72.2631 37.295 70.6765 37.284ZM81.5601 37.2898C80.8787 37.2851 80.2825 37.1316 79.7712 36.8294C79.2694 36.5179 78.8849 36.1045 78.6178 35.5893C78.3508 35.0647 78.2196 34.4805 78.224 33.8365C78.2285 33.1925 78.3679 32.6148 78.6421 32.1034C78.9164 31.5826 79.3066 31.1747 79.8127 30.8795C80.3282 30.5751 80.9266 30.4253 81.6079 30.43C82.2892 30.4348 82.8808 30.5929 83.3826 30.9044C83.8939 31.2066 84.283 31.62 84.55 32.1446C84.8171 32.6598 84.9484 33.2394 84.9439 33.8833C84.9394 34.5273 84.8 35.1097 84.5257 35.6305C84.2515 36.1419 83.8566 36.5498 83.3411 36.8542C82.8351 37.1494 82.2414 37.2946 81.5601 37.2898ZM81.5644 36.6599C82.0404 36.6632 82.4062 36.4091 82.6618 35.8975C82.9174 35.3859 83.0481 34.7102 83.0539 33.8702C83.0598 33.0302 82.9385 32.3527 82.6901 31.8376C82.4417 31.3225 82.0795 31.0633 81.6035 31.06C81.1275 31.0567 80.7617 31.3108 80.5061 31.8224C80.2506 32.3339 80.1199 33.0097 80.114 33.8497C80.1081 34.6897 80.2294 35.3672 80.4778 35.8823C80.7263 36.3973 81.0885 36.6565 81.5644 36.6599ZM86.5607 32.4246C86.564 31.9486 86.5011 31.5981 86.372 31.3732C86.243 31.139 85.9825 31.0205 85.5905 31.0178L85.4505 31.0168L85.4534 30.5968L87.1334 30.6085C87.4694 30.6109 87.7256 30.6687 87.9022 30.7819C88.0787 30.8951 88.2034 31.0827 88.2763 31.3445C88.3492 31.597 88.384 31.9613 88.3807 32.4373L88.3729 33.5572L90.6128 33.5729L90.6333 30.6329L92.4532 30.6456L92.4201 35.4055C92.4167 35.8815 92.4796 36.2366 92.6086 36.4708C92.7377 36.6957 92.9983 36.8096 93.3903 36.8123L93.5303 36.8133L93.5274 37.2333L91.8474 37.2216C91.5114 37.2192 91.2551 37.1661 91.0785 37.0622C90.9019 36.949 90.7772 36.7661 90.7043 36.5136C90.6315 36.2517 90.5967 35.8781 90.6001 35.3928L90.6084 34.2028L88.3685 34.1872L88.3475 37.1972L86.5275 37.1845L86.5607 32.4246ZM96.3001 37.3926C95.5441 37.3873 94.9573 37.2152 94.5396 36.8763C94.1314 36.5281 93.9293 36.0647 93.9333 35.4861C93.9365 35.0194 94.0466 34.6328 94.2634 34.3263C94.4895 34.0199 94.8785 33.7893 95.4302 33.6344C95.982 33.4796 96.7479 33.4056 97.7278 33.4125L97.9378 33.4139C97.9435 32.6019 97.8355 32.0272 97.6138 31.6896C97.3923 31.3427 97.0621 31.1678 96.6235 31.1647C96.2595 31.1622 95.9602 31.2487 95.7256 31.4244C95.4911 31.6002 95.3208 31.9303 95.2147 32.4149L94.4448 32.4095C94.447 32.0922 94.4675 31.8217 94.5064 31.598C94.5546 31.3743 94.654 31.179 94.8045 31.012C95.0961 30.6874 95.7972 30.5289 96.9079 30.5367C97.8412 30.5432 98.5488 30.7954 99.0306 31.2935C99.5219 31.7823 99.7641 32.5166 99.7573 33.4966L99.731 37.2765L98.541 37.2682L98.0554 36.6348L97.9854 36.6343C97.9005 36.7644 97.7689 36.8942 97.5907 37.0236C97.2716 37.2734 96.8414 37.3964 96.3001 37.3926ZM96.7249 36.6955C96.9209 36.6969 97.0892 36.6607 97.2297 36.5871C97.3703 36.504 97.5064 36.393 97.638 36.2539C97.7603 36.1241 97.8547 35.9707 97.9212 35.7939L97.9334 34.0439L97.7234 34.0424C97.0608 34.0378 96.5793 34.1558 96.2789 34.3964C95.9787 34.6276 95.8268 34.9952 95.8232 35.4992C95.8206 35.8819 95.8979 36.1764 96.0551 36.3829C96.2123 36.5893 96.4356 36.6935 96.7249 36.6955ZM109.096 37.6218C108.135 37.6151 107.306 37.404 106.608 36.9884C105.921 36.5636 105.397 35.9906 105.038 35.2695C104.679 34.5483 104.503 33.735 104.509 32.8297C104.516 31.8964 104.722 31.0485 105.129 30.286C105.536 29.5141 106.091 28.9113 106.794 28.4775C107.506 28.0345 108.296 27.816 109.164 27.822C109.986 27.8278 110.671 27.9399 111.22 28.1584C111.769 28.3675 112.187 28.6411 112.474 28.9791C112.641 29.195 112.742 29.4617 112.777 29.7793C112.812 30.0969 112.828 30.5403 112.824 31.1096L112.404 31.1067C112.232 30.2468 111.91 29.5912 111.437 29.1399C110.964 28.6886 110.345 28.4603 109.58 28.455C108.628 28.4483 107.874 28.7791 107.319 29.4472C106.764 30.1154 106.48 31.2474 106.469 32.8434C106.461 34.0287 106.706 35.0151 107.205 35.8026C107.703 36.5901 108.475 36.9875 109.52 36.9947C110.174 36.9993 110.772 36.8308 111.316 36.4893C111.869 36.1478 112.316 35.6562 112.656 35.0146L113.144 35.396C112.69 36.1768 112.145 36.747 111.508 37.1066C110.871 37.4568 110.067 37.6286 109.096 37.6218ZM117.199 37.5383C116.555 37.5338 115.991 37.3805 115.508 37.0785C115.025 36.7764 114.65 36.3678 114.382 35.8526C114.125 35.3281 113.998 34.7392 114.003 34.0859C114.008 33.3579 114.143 32.7382 114.408 32.2267C114.682 31.7153 115.053 31.3305 115.522 31.0724C115.99 30.805 116.519 30.6734 117.107 30.6775C117.685 30.6815 118.207 30.8018 118.672 31.0384C119.137 31.275 119.504 31.6089 119.771 32.0401C120.039 32.462 120.171 32.9482 120.167 33.4989C120.166 33.6762 120.155 33.8768 120.135 34.1007L120.105 34.3805L115.891 34.3511C115.885 35.2377 116.016 35.8873 116.283 36.2999C116.551 36.7031 116.928 36.9064 117.413 36.9098C117.861 36.9129 118.235 36.8175 118.535 36.6236C118.845 36.4204 119.141 36.1331 119.423 35.7618L119.855 36.0868C119.581 36.5049 119.238 36.8525 118.826 37.1296C118.422 37.4068 117.88 37.543 117.199 37.5383ZM118.275 33.7377C118.281 32.8604 118.183 32.239 117.98 31.8736C117.778 31.4988 117.485 31.3101 117.102 31.3075C116.748 31.305 116.457 31.4943 116.23 31.8754C116.013 32.2472 115.901 32.8625 115.895 33.7211L118.275 33.7377ZM121.738 32.6698C121.741 32.1938 121.678 31.8434 121.549 31.6185C121.43 31.3843 121.174 31.2658 120.782 31.2631L120.642 31.2621L120.645 30.8421L122.031 30.8518C122.357 30.8541 122.609 30.9025 122.786 30.9971C122.962 31.0823 123.101 31.2326 123.202 31.448C123.757 30.9665 124.393 30.7283 125.111 30.7333C126.054 30.7399 126.775 31.0669 127.275 31.7144C127.784 32.3526 128.035 33.1757 128.028 34.1837C128.02 35.1917 127.753 36.0158 127.226 36.6562C126.709 37.2872 125.964 37.5994 124.994 37.5926C124.611 37.59 124.252 37.5175 123.917 37.3751C123.768 37.3181 123.638 37.2472 123.527 37.1624L123.506 40.1023L121.686 40.0896L121.738 32.6698ZM124.718 36.9607C125.651 36.9672 126.125 36.0371 126.138 34.1705C126.144 33.3119 126.041 32.6298 125.83 32.1243C125.619 31.6188 125.284 31.3645 124.827 31.3613C124.304 31.3577 123.85 31.5458 123.465 31.9258L123.506 32.1221C123.542 32.2344 123.56 32.3932 123.558 32.5985L123.531 36.5324C123.633 36.6171 123.745 36.6879 123.866 36.7447C124.126 36.8866 124.41 36.9585 124.718 36.9607ZM129.597 32.7246C129.6 32.2486 129.538 31.8982 129.408 31.6733C129.279 31.439 129.019 31.3205 128.627 31.3178L128.557 31.3173L128.56 30.8973L133.39 30.931C134.09 30.9359 134.437 31.3116 134.432 32.0583L134.425 33.0383L134.005 33.0353C134.009 32.522 133.899 32.1479 133.677 31.913C133.454 31.6781 133.124 31.5592 132.685 31.5561L131.425 31.5473L131.384 37.4972L129.564 37.4845L129.597 32.7246ZM137.857 37.6823C137.213 37.6778 136.649 37.5245 136.166 37.2225C135.682 36.9205 135.307 36.5118 135.04 35.9966C134.783 35.4721 134.656 34.8833 134.661 34.2299C134.666 33.502 134.801 32.8822 135.065 32.3707C135.34 31.8593 135.711 31.4745 136.18 31.2164C136.648 30.949 137.176 30.8174 137.764 30.8215C138.343 30.8255 138.865 30.9458 139.33 31.1824C139.795 31.419 140.161 31.7529 140.429 32.1841C140.697 32.606 140.829 33.0922 140.825 33.6429C140.824 33.8202 140.813 34.0208 140.793 34.2447L140.763 34.5245L136.549 34.4951C136.543 35.3817 136.673 36.0313 136.941 36.4439C137.209 36.8471 137.586 37.0504 138.071 37.0538C138.519 37.0569 138.893 36.9615 139.193 36.7676C139.502 36.5644 139.798 36.2771 140.081 35.9058L140.513 36.2308C140.239 36.6489 139.896 36.9965 139.483 37.2736C139.08 37.5508 138.538 37.687 137.857 37.6823ZM138.933 33.8817C138.939 33.0044 138.841 32.383 138.638 32.0176C138.435 31.6429 138.143 31.4541 137.76 31.4515C137.405 31.449 137.115 31.6383 136.888 32.0194C136.671 32.3912 136.559 33.0065 136.553 33.8651L138.933 33.8817ZM144.979 37.732C144.335 37.7275 143.772 37.5742 143.289 37.2722C142.805 36.9701 142.43 36.5615 142.163 36.0463C141.905 35.5218 141.779 34.9329 141.783 34.2796C141.788 33.5516 141.923 32.9319 142.188 32.4204C142.463 31.9089 142.834 31.5242 143.302 31.2661C143.771 30.9987 144.299 30.867 144.887 30.8711C145.466 30.8752 145.988 30.9955 146.453 31.2321C146.918 31.4686 147.284 31.8025 147.552 32.2338C147.82 32.6556 147.951 33.1419 147.948 33.6925C147.946 33.8699 147.936 34.0705 147.915 34.2943L147.885 34.5741L143.672 34.5448C143.665 35.4314 143.796 36.081 144.064 36.4935C144.332 36.8968 144.708 37.1 145.194 37.1034C145.642 37.1066 146.016 37.0112 146.316 36.8172C146.625 36.6141 146.921 36.3268 147.204 35.9554L147.636 36.2804C147.362 36.6985 147.019 37.0462 146.606 37.3233C146.203 37.6005 145.661 37.7367 144.979 37.732ZM146.056 33.9314C146.062 33.0541 145.964 32.4327 145.761 32.0673C145.558 31.6925 145.265 31.5038 144.883 31.5011C144.528 31.4987 144.238 31.688 144.011 32.0691C143.794 32.4409 143.682 33.0561 143.676 33.9148L146.056 33.9314ZM149.434 32.8629C149.438 32.3869 149.375 32.0365 149.246 31.8115C149.117 31.5773 148.856 31.4588 148.464 31.4561L148.394 31.4556L148.397 31.0356L152.149 31.0618C153.017 31.0678 153.702 31.2173 154.204 31.5101C154.715 31.803 154.969 32.2201 154.965 32.7614C154.962 33.1721 154.806 33.5024 154.496 33.7522C154.187 33.9927 153.747 34.1483 153.177 34.219C153.802 34.3074 154.3 34.4928 154.671 34.7754C155.043 35.0487 155.227 35.4047 155.224 35.8433C155.215 37.0566 154.175 37.6561 152.103 37.6416L149.401 37.6228L149.434 32.8629ZM151.738 33.859C152.111 33.8616 152.424 33.7658 152.678 33.5715C152.94 33.368 153.073 33.0936 153.075 32.7483C153.078 32.3843 152.959 32.1081 152.717 31.9198C152.485 31.7221 152.211 31.6222 151.893 31.62C151.669 31.6184 151.459 31.6496 151.263 31.7136L151.248 33.8556L151.738 33.859ZM151.855 37.0799C152.294 37.0829 152.649 36.9781 152.921 36.7653C153.194 36.5432 153.331 36.2315 153.334 35.8301C153.337 35.3915 153.195 35.0592 152.907 34.8331C152.628 34.6072 152.237 34.4925 151.733 34.489L151.243 34.4855L151.226 36.9775C151.421 37.0442 151.631 37.0783 151.855 37.0799ZM156.846 32.9146C156.849 32.4386 156.787 32.0881 156.657 31.8632C156.528 31.629 156.268 31.5105 155.876 31.5078L155.736 31.5068L155.739 31.0868L157.419 31.0985C157.755 31.1008 158.011 31.1586 158.188 31.2719C158.364 31.3851 158.489 31.5726 158.562 31.8345C158.635 32.087 158.669 32.4513 158.666 32.9272L158.658 34.0472L160.898 34.0628L160.919 31.1229L162.739 31.1356L162.705 35.8955C162.702 36.3715 162.765 36.7266 162.894 36.9608C163.023 37.1857 163.284 37.2995 163.676 37.3023L163.816 37.3033L163.813 37.7232L162.133 37.7115C161.797 37.7092 161.54 37.6561 161.364 37.5522C161.187 37.4389 161.063 37.2561 160.99 37.0035C160.917 36.7417 160.882 36.3681 160.886 35.8828L160.894 34.6928L158.654 34.6772L158.633 37.6871L156.813 37.6744L156.846 32.9146ZM166.585 37.8826C165.829 37.8773 165.243 37.7052 164.825 37.3663C164.417 37.0181 164.215 36.5547 164.219 35.976C164.222 35.5094 164.332 35.1228 164.549 34.8163C164.775 34.5099 165.164 34.2792 165.716 34.1244C166.267 33.9696 167.033 33.8956 168.013 33.9024L168.223 33.9039C168.229 33.0919 168.121 32.5171 167.899 32.1796C167.678 31.8327 167.348 31.6577 166.909 31.6547C166.545 31.6521 166.246 31.7387 166.011 31.9144C165.776 32.0901 165.606 32.4203 165.5 32.9049L164.73 32.8995C164.732 32.5822 164.753 32.3117 164.792 32.0879C164.84 31.8643 164.939 31.6689 165.09 31.502C165.382 31.1774 166.083 31.0189 167.193 31.0266C168.127 31.0331 168.834 31.2854 169.316 31.7835C169.807 32.2722 170.05 33.0066 170.043 33.9866L170.016 37.7665L168.826 37.7582L168.341 37.1248L168.271 37.1243C168.186 37.2544 168.054 37.3841 167.876 37.5136C167.557 37.7633 167.127 37.8863 166.585 37.8826ZM167.01 37.1855C167.206 37.1869 167.375 37.1507 167.515 37.077C167.656 36.994 167.792 36.883 167.923 36.7439C168.046 36.6141 168.14 36.4607 168.207 36.2838L168.219 34.5339L168.009 34.5324C167.346 34.5278 166.865 34.6458 166.564 34.8864C166.264 35.1176 166.112 35.4852 166.109 35.9892C166.106 36.3719 166.183 36.6664 166.34 36.8728C166.498 37.0793 166.721 37.1835 167.01 37.1855Z" fill="#F3EFE4"/>
<path fill-rule="evenodd" clip-rule="evenodd" d="M17.0773 11.1283H17.2998H17.5224L17.6461 11.2767L17.9675 12.0186L18.3879 13.0325L18.9073 14.3926L19.4266 15.9506L19.6739 16.7914L19.7728 17.7063L19.847 18.8439L19.7728 19.3138L19.5997 19.66L19.3029 20.1546L19.0062 20.6492L18.8825 20.8965V20.9954V21.0696H19.6739L19.8964 21.1685L20.1685 21.391L20.6136 21.9104L20.8856 22.405L21.034 22.8254V23.0974V23.6414L20.4652 23.4436L19.9459 23.221L19.4266 23.0232L19.0062 22.8254V22.405H19.7728L19.5997 22.1577L19.3029 21.9846L19.0556 21.9104L18.7836 21.9846L18.5116 22.1577L18.1654 22.405L17.8934 22.7264L17.7202 23.0232H17.1515L16.9536 22.8254V11.2025L17.0773 11.1283ZM17.745 13.4034L18.0665 14.0216L18.4374 15.085L18.8578 16.5193L19.0309 17.558L19.1546 18.473V19.0417L18.7342 19.7094L18.2643 20.4761L18.1654 20.7728V21.3416L17.745 21.762H17.6461V13.4034H17.745Z" fill="#F3EFE4"/>
<path fill-rule="evenodd" clip-rule="evenodd" d="M27.984 11.1283H27.7614H27.5388L27.4151 11.2767L27.0935 12.0186L26.673 13.0325L26.1536 14.3926L25.6341 15.9506L25.3868 16.7914L25.2878 17.7063L25.2136 18.8439L25.2878 19.3138L25.461 19.66L25.7578 20.1546L26.0546 20.6492L26.1783 20.8965V20.9954V21.0696H25.3868L25.1641 21.1685L24.892 21.391L24.4468 21.9104L24.1747 22.405L24.0263 22.8254V23.0974V23.6414L24.5952 23.4436L25.1147 23.221L25.6341 23.0232L26.0546 22.8254V22.405H25.2878L25.461 22.1577L25.7578 21.9846L26.0052 21.9104L26.2773 21.9846L26.5494 22.1577L26.8957 22.405L27.1678 22.7264L27.3409 23.0232H27.9098L28.1077 22.8254V11.2025L27.984 11.1283ZM27.3162 13.4034L26.9946 14.0216L26.6236 15.085L26.2031 16.5193L26.0299 17.558L25.9062 18.473V19.0417L26.3267 19.7094L26.7967 20.4761L26.8957 20.7728V21.3416L27.3162 21.762H27.4151V13.4034H27.3162Z" fill="#F3EFE4"/>
<path fill-rule="evenodd" clip-rule="evenodd" d="M21.8748 3.65996V3.51159V3.46213L22.1221 3.48686L22.2705 3.58578L22.3941 3.68469L22.6167 3.88253L22.7651 4.1051L22.8887 4.30293L23.0124 4.5255L23.136 4.79752L23.2597 5.06955L23.3586 5.34157L23.4575 5.66306L23.5564 6.00927L23.5811 6.30602L23.6059 6.75115V6.94899L23.1855 7.56723L23.2102 7.59196L23.7048 7.22101H23.8037L23.8779 7.27047L23.9768 7.46831L24.0015 7.66615L24.051 7.98763L24.1252 8.28438L24.1994 8.70479L24.2983 9.2983L24.3972 9.86707L24.4961 10.609V11.4992L24.5209 17.1376L24.4714 17.3107L23.7048 18.1267L23.7542 18.1762L24.3725 18.0278L24.3972 18.2998V19.7836L24.323 20.6244L24.1994 21.391L23.9768 22.034L23.6801 22.578L23.3091 23.0479L22.9382 23.2457H22.8393V24.3338H24.1005V24.779L23.6801 25.2241L23.5811 25.323V25.4714C24.084 25.8918 25.0946 26.7425 25.1144 26.7821C25.1342 26.8216 25.4029 27.1118 25.5348 27.2519L25.5595 27.3014V28.1175L25.2627 28.4884L24.9165 28.711L24.4219 28.8099L23.8779 28.9088H21.2318H20.8362L20.0695 28.5131L19.7481 28.2906L19.575 28.1422L19.5255 28.0433V27.4003V27.3014L21.5533 25.4714V25.2241L21.0835 24.7048L21.0093 24.6553V24.3833V24.3338H22.1468V23.2457L21.7017 22.8748L21.3308 22.3308L21.1329 21.8609L20.9351 21.391L20.8114 20.8223L20.7372 20.1051L20.6383 19.0665V18.2998L20.5889 14.1947H21.1329V14.0958L20.6383 13.4281V11.7465L20.7125 10.5348L20.8362 9.74343L21.0093 8.65533L21.3308 7.46831L21.578 6.55332L21.8253 5.81143L21.8748 5.06955V3.65996ZM22.5672 10.0897L22.493 10.5595L22.4188 11.2767V12.439L22.3447 14.9366V19.4127L22.4436 22.1329L22.5425 22.7017L22.6909 22.1329L22.7651 20.8717V17.4343V13.5518L22.6909 11.6229L22.6414 10.6337L22.5672 10.0897ZM22.2705 24.5811H21.4544V24.7295L21.5533 24.8779L21.6769 24.9521H21.9737L22.2705 24.7543V24.5811ZM22.9876 28.2411L23.408 28.1175L23.8284 27.9938L24.1252 27.8207L24.2736 27.5981V27.4003L24.2241 27.3014H24.4714L24.6445 27.4003L24.7681 27.5487L24.8423 27.7218L24.7681 27.8702L24.6445 28.0433L24.3725 28.1669L24.051 28.2411L23.6306 28.3153L23.3586 28.3648H23.0371L22.9382 28.3153L22.9876 28.2411Z" fill="#F3EFE4"/>
<path fill-rule="evenodd" clip-rule="evenodd" d="M12.3292 0.370943L12.0572 0.741886L11.5873 1.5085L11.1175 2.47295L10.6723 3.58578L10.3509 4.50077L10.0788 5.51468L9.93046 6.47913L9.80681 7.5425L9.75735 8.70479V9.2983L9.80681 9.99073L9.90573 10.7821L10.0541 11.8207L10.2519 13.0077L10.425 14.0464L10.6723 15.1839L10.8949 16.1731L11.2411 17.6569L11.5873 19.3138L11.7852 20.0556L11.8841 20.6986L11.9583 21.5147L12.0572 22.6028L12.1561 24.2102L12.2056 25.6692L12.255 27.0788L12.2056 28.1175L12.1561 28.1917H9.75735L9.48532 28.3153L9.18857 28.5379L8.99073 28.7357L8.84236 28.9088L8.76817 29.0077L8.74344 30.6399L8.84236 31.0355L8.99073 31.4065L9.26276 31.7774L9.41114 31.9258L32.6074 32L32.9042 31.8022L33.2999 31.3323L33.6213 30.8624L33.8439 30.4173L34.388 29.3292L34.6847 28.4389L34.932 27.6971L35.1793 26.6832L35.3277 25.694L35.3524 24.9026V21.9104L35.2535 21.1437L35.1546 20.1051L35.0556 19.4127L34.9815 18.9181L34.8578 18.0773L34.6105 16.9397L34.3138 15.4807L33.8686 13.3539L33.473 11.3756L33.3493 10.5842L33.2257 9.14992L33.102 8.2102L33.0278 7.5425L32.9784 3.88253L33.0773 3.83308H35.8223L36.1932 3.48686L36.3416 3.19011V2.69552V1.5085L36.1932 0.964451L36.0696 0.667697L35.8965 0.445131L35.7728 0.321484L35.4513 0.0741886L35.204 0H12.9475H12.7002L12.5271 0.123648L12.3292 0.370943ZM12.0572 31.4065L12.7249 30.442L12.9969 29.3539L13.1947 27.2519V24.8037L12.9969 21.8609L12.7249 19.289L12.1314 16.7419L11.4637 13.5518L10.9691 10.1391V7.76507L11.4637 5.16847L12.4034 2.62133L13.1947 1.23648L13.5162 0.692428H33.0773L32.7805 1.06337L32.1623 2.29985L31.6924 3.65997L31.544 5.16847L31.6924 7.76507L31.9397 10.5595L32.6321 13.5518L33.3246 17.1623L33.9675 20.4019L34.1654 24.0371L33.9675 25.8176L33.3246 28.2906L32.0634 30.7635L31.6924 31.4065H12.0572ZM12.0819 29.0819H9.58423V30.7141L9.73261 31.0108L9.88098 31.3323L10.2519 31.5796H10.6229L10.8454 31.456L11.1669 31.1592L11.4389 30.8624L11.6615 30.4668L11.7852 30.0958L11.9583 29.6012L12.0819 29.0819ZM33.0278 3.06646H35.6244V2.5966V1.58269V1.28594L35.4266 0.939726L35.204 0.642972L35.0309 0.494595H34.6105H34.3138L33.9923 0.642972L33.7697 0.939726L33.473 1.58269L33.2504 2.22566L33.0278 3.06646Z" fill="#F3EFE4"/>
<path d="M7.536 45.048C7.032 45.048 6.576 44.944 6.168 44.736C5.76 44.52 5.428 44.104 5.172 43.488L4.896 42.816H1.704L0.72 45H0.096L3.636 37.08H4.176L6.864 43.488C7.168 44.232 7.584 44.632 8.112 44.688V44.988C7.968 45.028 7.776 45.048 7.536 45.048ZM1.956 42.276H4.668L3.348 39.144L1.956 42.276ZM7.87753 44.88C7.87753 44.76 7.91753 44.66 7.99753 44.58C8.07753 44.5 8.17753 44.46 8.29753 44.46H8.72953C8.98553 43.9 9.16953 43.304 9.28153 42.672C9.39353 42.032 9.44953 41.408 9.44953 40.8C9.44953 40.448 9.38953 40.18 9.26953 39.996C9.14953 39.812 8.90953 39.72 8.54953 39.72V39.36H13.8895V44.46H14.2495C14.3695 44.46 14.4695 44.5 14.5495 44.58C14.6295 44.66 14.6695 44.76 14.6695 44.88V46.92H14.0695C14.0295 46.408 13.9535 46.012 13.8415 45.732C13.7295 45.46 13.5815 45.268 13.3975 45.156C13.2215 45.052 12.9975 45 12.7255 45H9.82153C9.54953 45 9.32153 45.052 9.13753 45.156C8.96153 45.268 8.81753 45.46 8.70553 45.732C8.59353 46.012 8.51753 46.408 8.47753 46.92H7.87753V44.88ZM12.3295 44.46V39.9H10.6375C10.6375 40.932 10.5855 41.804 10.4815 42.516C10.3855 43.22 10.2175 43.868 9.97753 44.46H12.3295ZM15.6536 40.92C15.6536 40.512 15.5976 40.212 15.4856 40.02C15.3736 39.82 15.1496 39.72 14.8136 39.72H14.7536V39.36H17.9696C18.7136 39.36 19.3016 39.484 19.7336 39.732C20.1736 39.98 20.3936 40.336 20.3936 40.8C20.3936 41.152 20.2616 41.436 19.9976 41.652C19.7336 41.86 19.3576 41.996 18.8696 42.06C19.4056 42.132 19.8336 42.288 20.1536 42.528C20.4736 42.76 20.6336 43.064 20.6336 43.44C20.6336 44.48 19.7456 45 17.9696 45H15.6536V40.92ZM17.6336 41.76C17.9536 41.76 18.2216 41.676 18.4376 41.508C18.6616 41.332 18.7736 41.096 18.7736 40.8C18.7736 40.488 18.6696 40.252 18.4616 40.092C18.2616 39.924 18.0256 39.84 17.7536 39.84C17.5616 39.84 17.3816 39.868 17.2136 39.924V41.76H17.6336ZM17.7536 44.52C18.1296 44.52 18.4336 44.428 18.6656 44.244C18.8976 44.052 19.0136 43.784 19.0136 43.44C19.0136 43.064 18.8896 42.78 18.6416 42.588C18.4016 42.396 18.0656 42.3 17.6336 42.3H17.2136V44.436C17.3816 44.492 17.5616 44.52 17.7536 44.52ZM24.3706 45.12C23.7866 45.12 23.2746 44.992 22.8346 44.736C22.4026 44.472 22.0706 44.12 21.8386 43.68C21.6066 43.232 21.4906 42.732 21.4906 42.18C21.4906 41.628 21.6066 41.132 21.8386 40.692C22.0706 40.244 22.4026 39.892 22.8346 39.636C23.2746 39.372 23.7866 39.24 24.3706 39.24C24.9546 39.24 25.4626 39.372 25.8946 39.636C26.3346 39.892 26.6706 40.244 26.9026 40.692C27.1346 41.132 27.2506 41.628 27.2506 42.18C27.2506 42.732 27.1346 43.232 26.9026 43.68C26.6706 44.12 26.3346 44.472 25.8946 44.736C25.4626 44.992 24.9546 45.12 24.3706 45.12ZM24.3706 44.58C24.7786 44.58 25.0906 44.36 25.3066 43.92C25.5226 43.48 25.6306 42.9 25.6306 42.18C25.6306 41.46 25.5226 40.88 25.3066 40.44C25.0906 40 24.7786 39.78 24.3706 39.78C23.9626 39.78 23.6506 40 23.4346 40.44C23.2186 40.88 23.1106 41.46 23.1106 42.18C23.1106 42.9 23.2186 43.48 23.4346 43.92C23.6506 44.36 23.9626 44.58 24.3706 44.58ZM33.1277 45.12C32.7757 45.12 32.4517 45.048 32.1557 44.904C31.8677 44.752 31.5957 44.504 31.3397 44.16L30.1877 42.648V45H28.6277V40.92C28.6277 40.512 28.5717 40.212 28.4597 40.02C28.3477 39.82 28.1237 39.72 27.7877 39.72H27.6677V39.36H29.1077C29.3957 39.36 29.6157 39.408 29.7677 39.504C29.9197 39.6 30.0277 39.76 30.0917 39.984C30.1557 40.2 30.1877 40.512 30.1877 40.92V42.06L31.6397 40.284C31.9117 39.956 32.1677 39.72 32.4077 39.576C32.6477 39.432 32.9677 39.36 33.3677 39.36H33.6077V39.672C33.3677 39.672 33.1517 39.72 32.9597 39.816C32.7677 39.912 32.5837 40.064 32.4077 40.272L31.2437 41.688L32.8397 43.8C33.2237 44.32 33.5957 44.624 33.9557 44.712V45C33.8917 45.032 33.7757 45.06 33.6077 45.084C33.4397 45.108 33.2797 45.12 33.1277 45.12ZM36.3607 45.12C35.7127 45.12 35.2087 44.976 34.8487 44.688C34.4967 44.392 34.3207 43.996 34.3207 43.5C34.3207 43.1 34.4127 42.768 34.5967 42.504C34.7887 42.24 35.1207 42.04 35.5927 41.904C36.0647 41.768 36.7207 41.7 37.5607 41.7H37.7407C37.7407 41.004 37.6447 40.512 37.4527 40.224C37.2607 39.928 36.9767 39.78 36.6007 39.78C36.2887 39.78 36.0327 39.856 35.8327 40.008C35.6327 40.16 35.4887 40.444 35.4007 40.86H34.7407C34.7407 40.588 34.7567 40.356 34.7887 40.164C34.8287 39.972 34.9127 39.804 35.0407 39.66C35.2887 39.38 35.8887 39.24 36.8407 39.24C37.6407 39.24 38.2487 39.452 38.6647 39.876C39.0887 40.292 39.3007 40.92 39.3007 41.76V45H38.2807L37.8607 44.46H37.8007C37.7287 44.572 37.6167 44.684 37.4647 44.796C37.1927 45.012 36.8247 45.12 36.3607 45.12ZM36.7207 44.52C36.8887 44.52 37.0327 44.488 37.1527 44.424C37.2727 44.352 37.3887 44.256 37.5007 44.136C37.6047 44.024 37.6847 43.892 37.7407 43.74V42.24H37.5607C36.9927 42.24 36.5807 42.344 36.3247 42.552C36.0687 42.752 35.9407 43.068 35.9407 43.5C35.9407 43.828 36.0087 44.08 36.1447 44.256C36.2807 44.432 36.4727 44.52 36.7207 44.52ZM42.0498 39.9H41.6898C41.3138 39.9 41.0298 40 40.8378 40.2C40.6458 40.4 40.5498 40.72 40.5498 41.16H40.1898V40.32C40.1898 39.68 40.4898 39.36 41.0898 39.36H45.4218V39.9H43.6098V45H42.0498V39.9Z" fill="#F3EFE4"/>
<rect x="51" width="1" height="48" rx="0.5" fill="#F3EFE4"/>
</svg>
