<svg width="55" height="55" viewBox="0 0 55 55" fill="none" xmlns="http://www.w3.org/2000/svg">
<circle cx="27.5" cy="27.5" r="27.5" fill="#281205"/>
<path fill-rule="evenodd" clip-rule="evenodd" d="M22.3338 22.1283H22.5564H22.779L22.9026 22.2767L23.2241 23.0186L23.6445 24.0325L24.1638 25.3926L24.6831 26.9506L24.9304 27.7914L25.0294 28.7063L25.1035 29.8439L25.0294 30.3138L24.8562 30.66L24.5595 31.1546L24.2627 31.6492L24.1391 31.8965V31.9954V32.0696H24.9304L25.153 32.1685L25.425 32.391L25.8702 32.9104L26.1422 33.405L26.2906 33.8254V34.0974V34.6414L25.7218 34.4436L25.2025 34.221L24.6831 34.0232L24.2627 33.8254V33.405H25.0294L24.8562 33.1577L24.5595 32.9846L24.3122 32.9104L24.0402 32.9846L23.7681 33.1577L23.4219 33.405L23.1499 33.7264L22.9768 34.0232H22.408L22.2102 33.8254V22.2025L22.3338 22.1283ZM23.0015 24.4034L23.323 25.0216L23.694 26.085L24.1144 27.5193L24.2875 28.558L24.4111 29.473V30.0417L23.9907 30.7094L23.5209 31.4761L23.4219 31.7728V32.3416L23.0015 32.762H22.9026V24.4034H23.0015Z" fill="#F3EFE4"/>
<path fill-rule="evenodd" clip-rule="evenodd" d="M33.2406 22.1283H33.018H32.7954L32.6717 22.2767L32.3501 23.0186L31.9296 24.0325L31.4101 25.3926L30.8907 26.9506L30.6433 27.7914L30.5444 28.7063L30.4702 29.8439L30.5444 30.3138L30.7175 30.66L31.0144 31.1546L31.3112 31.6492L31.4349 31.8965V31.9954V32.0696H30.6433L30.4207 32.1685L30.1486 32.391L29.7034 32.9104L29.4313 33.405L29.2828 33.8254V34.0974V34.6414L29.8518 34.4436L30.3712 34.221L30.8907 34.0232L31.3112 33.8254V33.405H30.5444L30.7175 33.1577L31.0144 32.9846L31.2617 32.9104L31.5338 32.9846L31.8059 33.1577L32.1522 33.405L32.4243 33.7264L32.5975 34.0232H33.1664L33.3643 33.8254V22.2025L33.2406 22.1283ZM32.5727 24.4034L32.2512 25.0216L31.8801 26.085L31.4596 27.5193L31.2865 28.558L31.1628 29.473V30.0417L31.5833 30.7094L32.0533 31.4761L32.1522 31.7728V32.3416L32.5727 32.762H32.6717V24.4034H32.5727Z" fill="#F3EFE4"/>
<path fill-rule="evenodd" clip-rule="evenodd" d="M27.1314 14.66V14.5116V14.4621L27.3787 14.4869L27.527 14.5858L27.6507 14.6847L27.8732 14.8825L28.0216 15.1051L28.1453 15.3029L28.2689 15.5255L28.3926 15.7975L28.5162 16.0695L28.6151 16.3416L28.7141 16.6631L28.813 17.0093L28.8377 17.306L28.8624 17.7512V17.949L28.442 18.5672L28.4668 18.592L28.9613 18.221H29.0603L29.1345 18.2705L29.2334 18.4683L29.2581 18.6661L29.3076 18.9876L29.3817 19.2844L29.4559 19.7048L29.5549 20.2983L29.6538 20.8671L29.7527 21.609V22.4992L29.7774 28.1376L29.728 28.3107L28.9613 29.1267L29.0108 29.1762L29.629 29.0278L29.6538 29.2998V30.7836L29.5796 31.6244L29.4559 32.391L29.2334 33.034L28.9366 33.578L28.5657 34.0479L28.1947 34.2457H28.0958V35.3338H29.357V35.779L28.9366 36.2241L28.8377 36.323V36.4714C29.3405 36.8918 30.3511 37.7425 30.3709 37.7821C30.3907 37.8216 30.6594 38.1118 30.7913 38.2519L30.8161 38.3014V39.1175L30.5193 39.4884L30.1731 39.711L29.6785 39.8099L29.1345 39.9088H26.4884H26.0927L25.3261 39.5131L25.0046 39.2906L24.8315 39.1422L24.7821 39.0433V38.4003V38.3014L26.8099 36.4714V36.2241L26.34 35.7048L26.2658 35.6553V35.3833V35.3338H27.4034V34.2457L26.9583 33.8748L26.5873 33.3308L26.3895 32.8609L26.1916 32.391L26.068 31.8223L25.9938 31.1051L25.8949 30.0665V29.2998L25.8454 25.1947H26.3895V25.0958L25.8949 24.4281V22.7465L25.9691 21.5348L26.0927 20.7434L26.2658 19.6553L26.5873 18.4683L26.8346 17.5533L27.0819 16.8114L27.1314 16.0695V14.66ZM27.8238 21.0897L27.7496 21.5595L27.6754 22.2767V23.439L27.6012 25.9366V30.4127L27.7001 33.1329L27.7991 33.7017L27.9474 33.1329L28.0216 31.8717V28.4343V24.5518L27.9474 22.6229L27.898 21.6337L27.8238 21.0897ZM27.527 35.5811H26.7109V35.7295L26.8099 35.8779L26.9335 35.9521H27.2303L27.527 35.7543V35.5811ZM28.2442 39.2411L28.6646 39.1175L29.085 38.9938L29.3817 38.8207L29.5301 38.5981V38.4003L29.4807 38.3014H29.7279L29.9011 38.4003L30.0247 38.5487L30.0989 38.7218L30.0247 38.8702L29.9011 39.0433L29.629 39.1669L29.3075 39.2411L28.8871 39.3153L28.6151 39.3648H28.2936L28.1947 39.3153L28.2442 39.2411Z" fill="#F3EFE4"/>
<path fill-rule="evenodd" clip-rule="evenodd" d="M17.5858 11.3709L17.3138 11.7419L16.8439 12.5085L16.374 13.473L15.9289 14.5858L15.6074 15.5008L15.3354 16.5147L15.187 17.4791L15.0634 18.5425L15.0139 19.7048V20.2983L15.0634 20.9907L15.1623 21.7821L15.3107 22.8207L15.5085 24.0077L15.6816 25.0464L15.9289 26.1839L16.1515 27.1731L16.4977 28.6569L16.8439 30.3138L17.0417 31.0556L17.1406 31.6986L17.2148 32.5147L17.3138 33.6028L17.4127 35.2102L17.4621 36.6692L17.5116 38.0788L17.4621 39.1175L17.4127 39.1917H15.0139L14.7419 39.3153L14.4451 39.5379L14.2473 39.7357L14.0989 39.9088L14.0247 40.0077L14 41.6399L14.0989 42.0355L14.2473 42.4065L14.5193 42.7774L14.6677 42.9258L37.864 43L38.1607 42.8022L38.5564 42.3323L38.8779 41.8624L39.1005 41.4173L39.6445 40.3292L39.9413 39.4389L40.1886 38.6971L40.4359 37.6832L40.5842 36.694L40.609 35.9026V32.9104L40.51 32.1437L40.4111 31.1051L40.3122 30.4127L40.238 29.9181L40.1144 29.0773L39.8671 27.9397L39.5703 26.4807L39.1252 24.3539L38.7295 22.3756L38.6059 21.5842L38.4822 20.1499L38.3586 19.2102L38.2844 18.5425L38.2349 14.8825L38.3338 14.8331H41.0788L41.4498 14.4869L41.5981 14.1901V13.6955V12.5085L41.4498 11.9645L41.3261 11.6677L41.153 11.4451L41.0294 11.3215L40.7079 11.0742L40.4606 11H18.204H17.9567L17.7836 11.1236L17.5858 11.3709ZM17.3137 42.4065L17.9814 41.442L18.2535 40.3539L18.4513 38.2519V35.8037L18.2535 32.8609L17.9814 30.289L17.3879 27.7419L16.7202 24.5518L16.2256 21.1391V18.7651L16.7202 16.1685L17.66 13.6213L18.4513 12.2365L18.7728 11.6924H38.3338L38.0371 12.0634L37.4188 13.2998L36.949 14.66L36.8006 16.1685L36.949 18.7651L37.1963 21.5595L37.8887 24.5518L38.5811 28.1623L39.2241 31.4019L39.4219 35.0371L39.2241 36.8176L38.5811 39.2906L37.3199 41.7635L36.949 42.4065H17.3137ZM17.3385 40.0819H14.8408V41.7141L14.9892 42.0108L15.1375 42.3323L15.5085 42.5796H15.8794L16.102 42.456L16.4235 42.1592L16.6955 41.8624L16.9181 41.4668L17.0417 41.0958L17.2148 40.6012L17.3385 40.0819ZM38.2844 14.0665H40.881V13.5966V12.5827V12.2859L40.6832 11.9397L40.4606 11.643L40.2875 11.4946H39.8671H39.5703L39.2488 11.643L39.0263 11.9397L38.7295 12.5827L38.507 13.2257L38.2844 14.0665Z" fill="#F3EFE4"/>
</svg>
